Coordinates
version=1
nRows=20
nColumns=34
inDegrees=yes

Units are S.I. units (second, meters, Newtons, ...)
If the header above contains a line with 'inDegrees', this indicates whether rotational values are in degrees (yes) or radians (no).

endheader
time	pelvis_tilt	pelvis_list	pelvis_rotation	pelvis_tx	pelvis_ty	pelvis_tz	hip_flexion_r	hip_adduction_r	hip_rotation_r	knee_angle_r	ankle_angle_r	subtalar_angle_r	mtp_angle_r	hip_flexion_l	hip_adduction_l	hip_rotation_l	knee_angle_l	ankle_angle_l	subtalar_angle_l	mtp_angle_l	lumbar_extension	lumbar_bending	lumbar_rotation	arm_flex_r	arm_add_r	arm_rot_r	elbow_flex_r	pro_sup_r	arm_flex_l	arm_add_l	arm_rot_l	elbow_flex_l	pro_sup_l
      3.78333330	    -12.20455293	     -2.98364391	     -6.06463040	      0.28863982	      1.23990467	     -0.05873984	     16.35884047	      0.77506695	     -1.85884640	     48.89232347	     -6.63836244	     -3.19173840	      0.00000000	      0.90088332	     -6.23780464	     -3.66387309	     25.23644882	      2.44031785	     -4.03765308	      0.00000000	    -14.10350753	      5.95089901	      2.00167355	     42.89214028	    -12.38826284	      3.22238382	     84.56261190	     83.06369348	     47.27704485	    -11.11781362	      5.11364443	     65.28746987	     78.79451080
      3.80000000	    -11.10506741	     -3.04956066	     -5.93678717	      0.31116771	      1.25012019	     -0.05617226	     16.30526835	      0.31001823	     -1.88855998	     49.58806905	    -13.24982054	     -6.63279718	      0.00000000	      0.71568372	     -6.70233373	     -3.46480632	     27.46562550	     -3.48775483	     -4.90987131	      0.00000000	    -14.07120258	      6.08345259	      0.98276664	     40.48703509	    -12.72646113	      3.38046592	     89.07183947	     82.57883141	     45.04104690	    -11.93501742	      4.65323438	     66.75700556	     78.31728839
      3.81666670	     -9.75126811	     -2.72492074	     -5.19316038	      0.33240231	      1.26212592	     -0.05343561	     15.85551391	     -0.50616123	     -1.65638915	     49.99666439	    -16.19417288	    -10.07108015	      0.00000000	      1.55710001	     -6.89609610	     -3.37606955	     30.63621712	    -10.17685986	     -8.43830586	      0.00000000	    -14.92994657	      5.71544724	     -0.13089257	     37.36932772	    -13.25509070	      3.15101323	     93.40006530	     82.37247302	     43.23289493	    -12.95814773	      4.24737440	     67.89281312	     77.95645895
      3.83333330	     -8.28959499	     -1.86770174	     -4.62654461	      0.35315022	      1.27480971	     -0.05130388	     14.84856714	     -1.98436819	     -1.23413754	     48.57525195	    -19.91756985	    -12.91487742	      0.00000000	      3.11227964	     -6.44566960	     -3.44510644	     34.00738735	    -16.81308823	    -13.78959095	      0.00000000	    -16.31221440	      4.52342075	     -0.83616554	     33.65741201	    -13.94049319	      2.13573695	     97.40404497	     82.25253445	     41.78423556	    -13.48012305	      4.18591071	     68.70002714	     77.48754238
      3.85000000	     -7.23703457	     -1.05106555	     -4.04428851	      0.37230646	      1.28167156	     -0.04834658	     14.38060147	     -3.15590533	     -0.72669754	     46.64652209	    -21.81250873	    -13.66543149	      0.00000000	      4.61946371	     -6.06604315	     -3.44942469	     36.22938752	    -22.58540682	    -17.85556017	      0.00000000	    -17.59641911	      3.38736180	     -0.87904587	     29.94159825	    -14.42267459	      0.55605322	    100.70498822	     82.29589881	     40.99186332	    -13.62550648	      4.42554136	     68.25808411	     76.72970134
      3.86666670	     -6.55178726	     -0.70558381	     -3.82399881	      0.39108524	      1.28401331	     -0.04441640	     14.13482570	     -3.76250234	     -0.08545165	     44.20713417	    -22.49816404	    -13.55973809	      0.00000000	      5.83146890	     -6.09220548	     -3.13491115	     37.38481624	    -25.71504846	    -20.02947913	      0.00000000	    -18.34073766	      2.91154275	     -1.24498249	     27.07697024	    -14.72195576	      0.63969467	    102.27533804	     82.42815143	     39.76312734	    -14.26260161	      3.85319372	     67.34543529	     76.27656270
      3.88333330	     -5.90769178	     -0.79913804	     -3.96916843	      0.40585110	      1.28418051	     -0.04339264	     14.67951533	     -3.79922785	      0.72378039	     41.97945875	    -22.06520568	    -13.24495435	      0.00000000	      6.80672139	     -6.25481953	     -2.71263896	     37.12218721	    -25.96199696	    -19.76991317	      0.00000000	    -19.48361593	      2.76112020	     -1.17055508	     25.33882796	    -15.00180038	      0.89013486	    102.00908812	     82.45464703	     38.76662322	    -14.84962597	      3.54538738	     66.74955227	     76.18036658
      3.90000000	     -5.68491988	     -1.13049179	     -3.94700471	      0.42718224	      1.27657697	     -0.04286685	     15.96437259	     -3.89931400	      0.93254089	     40.13636391	    -18.10244448	    -13.17968082	      0.00000000	      7.92995973	     -6.66057906	     -2.59471466	     36.11064298	    -24.49191679	    -19.00198918	      0.00000000	    -20.04027524	      3.23256378	     -0.85721195	     22.65961455	    -16.07071835	      1.48711797	    101.91798452	     82.58471359	     37.20893587	    -14.41323023	      2.32113701	     65.71818462	     75.58375826
      3.91666670	     -5.80762765	     -1.34859778	     -3.96087680	      0.44390419	      1.26709097	     -0.04006395	     17.48268385	     -3.83170991	      1.21134020	     37.99981440	    -14.53597683	    -12.57707146	      0.00000000	      9.57035530	     -6.87702987	     -2.89581431	     34.60872558	    -22.73324108	    -18.02909414	      0.00000000	    -20.48659070	      3.34833839	     -0.51609987	     19.96215210	    -16.78036929	      1.51057138	    101.02752870	     82.65758456	     35.58257730	    -14.62693635	      1.65735096	     65.64820190	     75.04500520
      3.93333330	     -6.24950519	     -1.32458951	     -4.67151162	      0.46274673	      1.24976323	     -0.03759637	     18.95891533	     -3.83004423	      1.31585564	     36.49859225	    -16.51046170	    -10.67237865	      0.00000000	     11.80451836	     -6.84552123	     -3.31225347	     32.41229280	    -21.44677431	    -15.98051436	      0.00000000	    -20.38444380	      3.09858249	      0.08216718	     16.61485029	    -17.56552253	      1.31391815	     99.91216073	     82.74401770	     32.76289858	    -15.47126380	      0.65488338	     66.58559452	     74.41332206
      3.95000000	     -6.64986611	     -0.77405515	     -5.38870403	      0.48045546	      1.23737927	     -0.03486776	     20.58190698	     -4.41980827	      1.19066386	     33.81738367	    -18.76192704	     -8.51361102	      0.00000000	     13.84222591	     -6.35398322	     -4.23950054	     29.79527829	    -23.63402265	    -14.10741516	      0.00000000	    -20.43474843	      2.37127069	     -0.74947617	     14.41874914	    -17.98419064	      2.28938742	     96.68265150	     83.49007894	     28.83277532	    -17.37161086	     -2.06942910	     68.13984890	     71.73742509
      3.96666670	     -6.82443132	     -0.34461705	     -5.74500409	      0.50182033	      1.21934468	     -0.03124178	     21.70723254	     -4.92025248	      1.41172054	     30.75288904	    -19.94565711	     -5.67735663	      0.00000000	     15.14692980	     -6.04618113	     -5.12372862	     26.46203168	    -24.94596969	    -12.18485484	      0.00000000	    -20.18612646	      1.69415823	     -0.38727189	     10.76438024	    -19.03906720	      1.53901923	     93.38308908	     83.55052274	     25.55562307	    -18.85359985	     -2.51198892	     67.92241437	     71.43152110
      3.98333330	     -7.50555633	     -0.10853557	     -5.94246030	      0.51408385	      1.20646466	     -0.03098414	     22.91529719	     -5.31052534	      0.52514529	     26.41508117	    -21.76315080	     -3.53262103	      0.00000000	     16.88955637	     -5.73056564	     -4.98233742	     22.58669845	    -25.61720284	     -8.34233692	      0.00000000	    -20.12651836	      1.38448964	     -0.07348532	      7.78635691	    -20.46163465	     -0.08065229	     88.97292545	     83.63889364	     21.88611158	    -20.66634669	     -3.61683376	     68.02602777	     71.11241400
      4.00000000	     -7.84543677	     -0.00358998	     -6.04777686	      0.52856424	      1.19010349	     -0.02658347	     24.06268553	     -5.41251236	     -0.33293807	     21.25451048	    -23.99309797	     -0.32515517	      0.00000000	     18.07838676	     -5.74248113	     -4.90958453	     18.21921407	    -26.87015100	     -4.28038471	      0.00000000	    -20.84573345	      1.16942728	      0.23189923	      4.74201373	    -22.07400680	     -1.96361984	     83.84284470	     83.78512420	     17.90187162	    -23.18329165	     -4.99161267	     67.89599049	     70.89409209
      4.01666670	     -8.09462459	      0.11101836	     -6.29521365	      0.54851715	      1.16594782	     -0.02230328	     25.10802139	     -5.31130904	     -1.28981665	     16.92653579	    -25.85163732	      2.14128151	      0.00000000	     18.97519923	     -6.07471611	     -5.05179916	     13.82139558	    -28.65103835	     -1.02859914	      0.00000000	    -21.86723194	      0.90994136	     -0.46205497	      1.62978278	    -23.61520008	     -3.64067750	     79.15048809	     84.76098791	     11.66579413	    -26.46478042	     -8.88073078	     69.55544873	     70.62303949
      4.03333330	     -8.13169530	      0.20657253	     -5.93229894	      0.56729662	      1.14523244	     -0.01913489	     25.25686881	     -5.57517650	     -3.37661629	     12.29397631	    -27.45357880	      4.85883544	      0.00000000	     19.88795107	     -6.36214767	     -5.46298688	     10.11898796	    -30.60573674	      0.92727905	      0.00000000	    -23.06814991	      0.54367275	     -0.35099134	     -3.57299358	    -25.78288816	     -6.01845646	     74.17093679	     84.90631345	      7.17811618	    -29.44048767	    -10.96593099	     69.47554591	     70.57714641
      4.05000000	     -7.90442937	      0.15977929	     -5.82824390	      0.57852101	      1.10761928	     -0.01767461	     26.15075287	     -5.56003219	     -4.85453748	      9.14440705	    -28.72854281	      5.92246013	      0.00000000	     21.30855861	     -6.85916590	     -6.42580879	      7.80186757	    -31.23673924	      1.91296979	      0.00000000	    -24.67694591	      0.26796001	      0.02645107	     -9.52507968	    -28.22788925	     -9.10283722	     69.53529703	     84.95982852	      2.21577396	    -32.91302102	    -13.98795706	     70.41862432	     70.55025315
      4.06666670	     -7.49651619	      0.16527833	     -5.69196015	      0.59473240	      1.07420568	     -0.01365815	     26.61500852	     -5.62362186	     -6.10613258	      7.25554509	    -29.78956510	      5.67229444	      0.00000000	     22.65246655	     -7.27484221	     -6.64892798	      6.93919487	    -31.38253178	      2.07866082	      0.00000000	    -26.67119804	     -0.08315386	     -0.26276744	    -15.29201080	    -29.81238401	    -12.51612456	     65.33601023	     85.06973740	     -3.84231286	    -35.96832519	    -19.21464316	     71.10811886	     70.59983804
      4.08333330	     -6.97215741	      0.17654259	     -5.52178586	      0.61931210	      1.04290909	     -0.01200201	     26.45493079	     -5.84060011	     -7.41042536	      6.95746407	    -31.01078520	      4.91263583	      0.00000000	     23.50064883	     -7.47513666	     -6.16914737	      6.97886950	    -31.99863448	      3.01926480	      0.00000000	    -27.70676003	     -0.36317134	      0.09158690	    -21.33192785	    -30.95194451	    -14.96970630	     59.15949449	     84.64623012	     -8.71615819	    -38.14072024	    -22.42704952	     69.29431423	     70.43611820
      4.10000000	     -6.44565565	      0.26850414	     -5.34846044	      0.62931075	      0.99941466	     -0.01031426	     27.27170606	     -6.17373063	     -7.11814803	      9.20043271	    -31.31792199	      3.40477930	      0.00000000	     25.39320877	     -7.58724980	     -5.78239970	      9.59237849	    -31.34480496	      2.61962364	      0.00000000	    -29.32673656	     -0.76081786	     -0.06558918	    -26.89228124	    -31.54462627	    -17.54663297	     55.13852671	     83.66055145	    -13.26421652	    -40.11276430	    -26.49562483	     68.23145546	     70.24408479
